<svg width="90" height="82" viewBox="0 0 90 82" fill="none" xmlns="http://www.w3.org/2000/svg">
<g clip-path="url(#clip0_81_2022)">
<path d="M40.4146 0.526841C40.2085 0.320217 39.9637 0.156283 39.6941 0.0444293C39.4246 -0.0674243 39.1356 -0.125 38.8438 -0.125C38.5519 -0.125 38.2629 -0.0674243 37.9934 0.0444293C37.7238 0.156283 37.479 0.320217 37.2729 0.526841L10.6479 27.1518C10.442 27.3583 10.2788 27.6033 10.1676 27.8728C10.0564 28.1423 9.99948 28.4312 10 28.7227V59.7852C10 60.3737 10.2338 60.938 10.6499 61.3541C11.066 61.7702 11.6303 62.004 12.2188 62.004H32.1875C32.776 62.004 33.3403 61.7702 33.7564 61.3541C34.1725 60.938 34.4063 60.3737 34.4063 59.7852V42.0352H43.2813V59.7852C43.2813 60.3737 43.515 60.938 43.9311 61.3541C44.3472 61.7702 44.9116 62.004 45.5 62.004H65.4688C66.0572 62.004 66.6216 61.7702 67.0377 61.3541C67.4538 60.938 67.6875 60.3737 67.6875 59.7852V28.7227C67.688 28.4312 67.6311 28.1423 67.5199 27.8728C67.4087 27.6033 67.2455 27.3583 67.0396 27.1518L61.0313 21.1479V6.53522C61.0313 5.94677 60.7975 5.38242 60.3814 4.96632C59.9653 4.55023 59.401 4.31647 58.8125 4.31647H54.375C53.7866 4.31647 53.2222 4.55023 52.8061 4.96632C52.39 5.38242 52.1563 5.94677 52.1563 6.53522V12.2729L40.4146 0.526841ZM14.4375 57.5665V29.6413L38.8438 5.23503L63.25 29.6413V57.5665H47.7188V39.8165C47.7188 39.228 47.485 38.6637 47.0689 38.2476C46.6528 37.8315 46.0885 37.5977 45.5 37.5977H32.1875C31.5991 37.5977 31.0347 37.8315 30.6186 38.2476C30.2025 38.6637 29.9688 39.228 29.9688 39.8165V57.5665H14.4375Z" fill="#E6E6E6" fill-opacity="0.6"/>
<path d="M53.7271 0.526841C53.521 0.320217 53.2762 0.156283 53.0066 0.0444293C52.7371 -0.0674243 52.4481 -0.125 52.1563 -0.125C51.8644 -0.125 51.5754 -0.0674243 51.3059 0.0444293C51.0363 0.156283 50.7915 0.320217 50.5854 0.526841L23.9604 27.1518C23.7545 27.3583 23.5913 27.6033 23.4801 27.8728C23.3689 28.1423 23.312 28.4312 23.3125 28.7227V59.7852C23.3125 60.3737 23.5463 60.938 23.9624 61.3541C24.3785 61.7702 24.9428 62.004 25.5313 62.004H45.5C46.0885 62.004 46.6528 61.7702 47.0689 61.3541C47.485 60.938 47.7188 60.3737 47.7188 59.7852V42.0352H56.5938V59.7852C56.5938 60.3737 56.8275 60.938 57.2436 61.3541C57.6597 61.7702 58.2241 62.004 58.8125 62.004H78.7813C79.3697 62.004 79.9341 61.7702 80.3502 61.3541C80.7663 60.938 81 60.3737 81 59.7852V28.7227C81.0005 28.4312 80.9436 28.1423 80.8324 27.8728C80.7212 27.6033 80.558 27.3583 80.3521 27.1518L74.3438 21.1479V6.53522C74.3438 5.94677 74.11 5.38242 73.6939 4.96632C73.2778 4.55023 72.7135 4.31647 72.125 4.31647H67.6875C67.0991 4.31647 66.5347 4.55023 66.1186 4.96632C65.7025 5.38242 65.4688 5.94677 65.4688 6.53522V12.2729L53.7271 0.526841ZM27.75 57.5665V29.6413L52.1563 5.23503L76.5625 29.6413V57.5665H61.0313V39.8165C61.0313 39.228 60.7975 38.6637 60.3814 38.2476C59.9653 37.8315 59.401 37.5977 58.8125 37.5977H45.5C44.9116 37.5977 44.3472 37.8315 43.9311 38.2476C43.515 38.6637 43.2813 39.228 43.2813 39.8165V57.5665H27.75Z" fill="#FF9505"/>
</g>
<path d="M1.68164 68.0244C1.40365 68.0426 1.08236 68.07 0.717773 68.1064C0.667643 68.1064 0.635742 68.0951 0.62207 68.0723C0.608398 68.0495 0.599284 68.0107 0.594727 67.9561L0.499023 66.6846C0.503581 66.6299 0.517253 66.5957 0.540039 66.582C0.567383 66.5638 0.608398 66.5501 0.663086 66.541C1.11426 66.5319 1.50618 66.5228 1.83887 66.5137C2.17611 66.5046 2.46777 66.4977 2.71387 66.4932C2.96452 66.4886 3.17643 66.4863 3.34961 66.4863C3.52734 66.4818 3.68001 66.4795 3.80762 66.4795C3.93978 66.4749 4.05599 66.4727 4.15625 66.4727H4.44336C5.80143 66.4727 6.80859 66.8281 7.46484 67.5391C8.22591 68.3594 8.60645 69.722 8.60645 71.627C8.60645 73.4271 8.22135 74.8079 7.45117 75.7695C6.71745 76.6764 5.70345 77.1299 4.40918 77.1299C3.05111 77.1299 1.81152 77.0729 0.69043 76.959C0.612956 76.9544 0.57194 76.8997 0.567383 76.7949L0.649414 75.585C0.658529 75.512 0.694987 75.4688 0.758789 75.4551L1.50391 75.5098L1.68164 68.0244ZM3.09668 75.5986C3.47949 75.626 3.75749 75.6396 3.93066 75.6396H4.36816C5.29329 75.6396 5.97233 75.3184 6.40527 74.6758C6.84277 74.0332 7.06152 73.0739 7.06152 71.7979C7.06152 69.6833 6.55339 68.4346 5.53711 68.0518C5.20898 67.9287 4.91276 67.8672 4.64844 67.8672C4.19271 67.8672 3.7028 67.8831 3.17871 67.915L3.09668 75.5986ZM10.2676 77.082C10.1947 77.082 10.1582 77.0273 10.1582 76.918V75.7354C10.1582 75.6396 10.2083 75.5918 10.3086 75.5918H11.1084V70.9639L10.1309 71.0459C10.0579 71.0413 10.0124 70.9867 9.99414 70.8818L9.84375 69.4258C9.85742 69.3392 9.91211 69.2913 10.0078 69.2822L12.1064 69.1387C12.1885 69.1387 12.2295 69.1911 12.2295 69.2959L12.127 70.4238C12.6419 69.8542 13.3984 69.4759 14.3965 69.2891C14.6973 69.2298 14.9867 69.2002 15.2646 69.2002C15.5426 69.2002 15.6862 69.2731 15.6953 69.4189L15.7773 71.9209C15.7773 72.0029 15.7432 72.0485 15.6748 72.0576L14.3896 72.1533C14.335 72.1533 14.2917 72.1442 14.2598 72.126C14.2279 72.1077 14.2119 72.0599 14.2119 71.9824V70.7725C13.6195 70.8226 13.0977 70.9411 12.6465 71.1279L12.5713 75.6396L13.7607 75.5508C13.8337 75.5508 13.8724 75.5895 13.877 75.667L13.9521 76.7949C13.9385 76.8861 13.8883 76.9362 13.8018 76.9453L10.2676 77.082ZM22.1279 76.959C21.5446 77.1048 20.804 77.1777 19.9062 77.1777C18.9902 77.1777 18.3249 76.8952 17.9102 76.3301C17.4772 75.7422 17.2607 74.8102 17.2607 73.5342C17.2607 72.1943 17.4453 71.194 17.8145 70.5332C18.2337 69.804 18.9036 69.3597 19.8242 69.2002C20.1432 69.1455 20.4987 69.1182 20.8906 69.1182C21.7337 69.1182 22.3467 69.3255 22.7295 69.7402C23.1123 70.1549 23.3037 70.7884 23.3037 71.6406C23.3037 72.1966 23.2057 72.625 23.0098 72.9258C22.946 73.0215 22.8594 73.1309 22.75 73.2539C22.6406 73.3724 22.4378 73.4795 22.1416 73.5752C21.8499 73.6663 21.515 73.737 21.1367 73.7871C20.5488 73.86 19.7399 73.8965 18.71 73.8965C18.7692 74.6667 18.9583 75.1908 19.2773 75.4688C19.5189 75.6875 19.9382 75.7969 20.5352 75.7969C21.0957 75.7969 21.654 75.749 22.21 75.6533L22.2305 75.2979C22.235 75.2432 22.2464 75.2067 22.2646 75.1885C22.2874 75.1702 22.3262 75.1543 22.3809 75.1406L23.3652 74.9219C23.4655 74.9219 23.5225 74.9652 23.5361 75.0518C23.5498 75.1292 23.5635 75.2819 23.5771 75.5098C23.5908 75.7331 23.6045 75.9268 23.6182 76.0908C23.6318 76.2549 23.6432 76.4121 23.6523 76.5625L23.6797 76.9453C23.6842 77.0592 23.6865 77.1549 23.6865 77.2324C23.6865 77.3691 23.5863 77.4489 23.3857 77.4717L22.251 77.6084C22.1507 77.6084 22.1006 77.5583 22.1006 77.458L22.1279 76.959ZM21.4922 72.4814C21.6107 72.3766 21.6813 72.2559 21.7041 72.1191C21.7314 71.9779 21.7451 71.8138 21.7451 71.627C21.7451 71.4355 21.7269 71.2669 21.6904 71.1211C21.6585 70.9753 21.6016 70.8499 21.5195 70.7451C21.3418 70.5264 21.0524 70.417 20.6514 70.417C19.8766 70.417 19.3594 70.613 19.0996 71.0049C18.8535 71.3695 18.7168 71.9984 18.6895 72.8916C20.2799 72.8688 21.2142 72.7321 21.4922 72.4814ZM29.4492 69.1318C30.7982 69.1318 31.4727 69.9704 31.4727 71.6475C31.4727 72.0439 31.4635 72.5566 31.4453 73.1855L31.3975 74.5254C31.3883 74.7943 31.377 75.0495 31.3633 75.291L31.3359 75.9404L31.7461 75.9062C31.8965 75.8971 32.0674 75.8835 32.2588 75.8652C32.3545 75.8652 32.4023 75.9085 32.4023 75.9951L32.2793 77.0752C32.2656 77.1572 32.2155 77.2028 32.1289 77.2119L30.1533 77.335C30.0895 77.335 30.0576 77.2848 30.0576 77.1846L30.1533 76.3848C29.3923 76.9727 28.5651 77.2666 27.6719 77.2666C26.9746 77.2666 26.4004 77.0638 25.9492 76.6582C25.4707 76.2298 25.2314 75.6533 25.2314 74.9287C25.2314 73.9854 25.5573 73.3223 26.209 72.9395C26.7832 72.6022 27.7288 72.4336 29.0459 72.4336C29.3193 72.4336 29.611 72.4404 29.9209 72.4541C29.9255 72.3356 29.9277 72.2262 29.9277 72.126V71.8662C29.9277 70.9775 29.5381 70.5332 28.7588 70.5332C28.3532 70.5332 27.8519 70.6562 27.2549 70.9023L27.2822 71.1621C27.2913 71.2487 27.2959 71.3171 27.2959 71.3672C27.2959 71.4674 27.2458 71.5176 27.1455 71.5176L25.9902 71.5381C25.9082 71.5244 25.8626 71.4743 25.8535 71.3877L25.7373 69.4326C25.7373 69.3232 25.7874 69.2617 25.8877 69.248L27.0293 69.0977C27.125 69.0977 27.1729 69.1478 27.1729 69.248V69.8154C27.9886 69.3597 28.7474 69.1318 29.4492 69.1318ZM28.1504 75.9746C28.6745 75.9746 29.251 75.8242 29.8799 75.5234C29.889 75.2227 29.8936 74.8923 29.8936 74.5322C29.8981 74.1676 29.9049 73.8076 29.9141 73.4521C28.7155 73.4521 27.8838 73.5547 27.4189 73.7598C26.9906 73.9512 26.7764 74.2702 26.7764 74.7168C26.7764 75.5553 27.2344 75.9746 28.1504 75.9746ZM39.7305 70.1641C40.487 69.4759 41.2298 69.1318 41.959 69.1318C43.0299 69.1318 43.6702 69.6445 43.8799 70.6699C43.9482 71.0072 43.9824 71.3353 43.9824 71.6543C43.9824 71.9688 43.9779 72.2832 43.9688 72.5977C43.9642 72.9121 43.9551 73.2493 43.9414 73.6094L43.9004 74.6963C43.8867 75.0609 43.873 75.3913 43.8594 75.6875L44.8506 75.626C44.9463 75.626 44.9941 75.6807 44.9941 75.79L44.8574 76.9316C44.8574 76.9863 44.8438 77.0205 44.8164 77.0342C44.7936 77.0524 44.7549 77.0638 44.7002 77.0684L42.6562 77.0137C42.5514 77.0137 42.499 76.9635 42.499 76.8633C42.5127 76.362 42.5195 75.9062 42.5195 75.4961L42.5332 74.416C42.5332 74.1107 42.5332 73.8236 42.5332 73.5547V72.3584C42.5332 71.766 42.4854 71.3809 42.3896 71.2031C42.2985 71.0254 42.1868 70.9046 42.0547 70.8408C41.9225 70.7725 41.7311 70.7383 41.4805 70.7383C41.043 70.7383 40.5531 70.8841 40.0107 71.1758C40.0426 71.3991 40.0586 71.6452 40.0586 71.9141C40.0586 72.1784 40.0563 72.4701 40.0518 72.7891C40.0472 73.1035 40.0404 73.4362 40.0312 73.7871C40.0267 74.138 40.0199 74.4889 40.0107 74.8398C40.0062 75.1908 39.9993 75.5052 39.9902 75.7832L40.8857 75.7627C40.9814 75.7627 41.0293 75.8174 41.0293 75.9268L40.9609 76.8633C40.9564 76.918 40.9427 76.9544 40.9199 76.9727C40.8971 76.9863 40.8584 76.9954 40.8037 77L38.2676 76.9453C38.1719 76.9453 38.124 76.8952 38.124 76.7949L38.0898 75.8379C38.099 75.7422 38.1491 75.6943 38.2402 75.6943L38.6641 75.7285C38.6732 75.0996 38.6777 74.5345 38.6777 74.0332V72.3584C38.6777 71.7751 38.6253 71.39 38.5205 71.2031C38.4202 71.0163 38.3018 70.8887 38.165 70.8203C38.0283 70.7474 37.8483 70.7109 37.625 70.7109C37.0781 70.7109 36.4971 70.9411 35.8818 71.4014V75.6533L36.5996 75.6191C36.6771 75.6191 36.7158 75.6579 36.7158 75.7354L36.791 76.7949C36.7728 76.8952 36.7227 76.9453 36.6406 76.9453L33.8379 76.877C33.7331 76.877 33.6807 76.8223 33.6807 76.7129L33.6123 75.667C33.6305 75.5713 33.6807 75.5234 33.7627 75.5234H34.4258V71.0254H33.3799C33.2887 71.0254 33.2432 70.9707 33.2432 70.8613L33.2295 69.5557C33.2477 69.4736 33.3024 69.4258 33.3936 69.4121L35.1162 69.4736C35.1982 69.4827 35.2507 69.5352 35.2734 69.6309L35.4717 70.54C36.3421 69.6468 37.1921 69.2002 38.0215 69.2002C38.8555 69.2002 39.4251 69.5215 39.7305 70.1641ZM54.0859 75.3594C54.1589 75.3594 54.1953 75.4027 54.1953 75.4893L54.1064 76.7744C54.0973 76.8656 54.0426 76.9111 53.9424 76.9111L50.7705 76.959C50.693 76.959 50.652 76.9043 50.6475 76.7949L50.6611 75.585C50.6611 75.5166 50.6976 75.4733 50.7705 75.4551L51.502 75.4756V68.0859L50.5928 68.0928C50.5426 68.0928 50.5107 68.0814 50.4971 68.0586C50.4834 68.0358 50.4743 67.9971 50.4697 67.9424L50.4082 66.7393C50.4128 66.6846 50.4264 66.6504 50.4492 66.6367C50.4766 66.6185 50.5176 66.6048 50.5723 66.5957L53.9834 66.6504C54.0654 66.6595 54.1064 66.7119 54.1064 66.8076L54.0791 68.0107C54.0791 68.111 54.0267 68.1611 53.9219 68.1611L53.0264 68.1133L53.0195 71.1348L56.7246 71.0869V67.9629L55.7881 67.9355C55.738 67.9355 55.7061 67.9242 55.6924 67.9014C55.6787 67.8786 55.6696 67.8398 55.665 67.7852L55.7061 66.6504C55.7152 66.5547 55.7699 66.5068 55.8701 66.5068L59.0625 66.4932C59.1126 66.4977 59.1445 66.5114 59.1582 66.5342C59.1719 66.5524 59.181 66.5911 59.1855 66.6504L59.2744 67.874C59.2744 67.9743 59.222 68.0244 59.1172 68.0244L58.249 68.0039L58.2285 75.5986L59.2812 75.5645C59.3542 75.5645 59.3906 75.6077 59.3906 75.6943L59.3018 76.9111C59.2926 77.0023 59.238 77.0479 59.1377 77.0479L55.8975 76.959C55.82 76.959 55.779 76.9043 55.7744 76.7949L55.7881 75.6533C55.7881 75.585 55.8245 75.5417 55.8975 75.5234L56.7246 75.585V72.4678L53.0127 72.4951L53.0059 75.4346L54.0859 75.3594ZM60.9014 73.1582C60.9014 72.3789 60.9652 71.7318 61.0928 71.2168C61.2249 70.6973 61.4186 70.2826 61.6738 69.9727C62.1478 69.4121 62.9202 69.1318 63.9912 69.1318C64.7386 69.1318 65.2832 69.207 65.625 69.3574C65.9714 69.5078 66.2425 69.6787 66.4385 69.8701C66.639 70.0615 66.8099 70.3076 66.9512 70.6084C67.2337 71.2236 67.375 71.9984 67.375 72.9326C67.375 73.8623 67.3089 74.5801 67.1768 75.0859C67.0492 75.5918 66.8555 75.9974 66.5957 76.3027C66.1126 76.8587 65.3311 77.1367 64.251 77.1367C63.1208 77.1367 62.2982 76.8633 61.7832 76.3164C61.1953 75.6966 60.9014 74.6439 60.9014 73.1582ZM65.5566 75.2842C65.6934 75.1019 65.7959 74.8467 65.8643 74.5186C65.9326 74.1904 65.9668 73.7894 65.9668 73.3154C65.9668 72.8415 65.9417 72.4587 65.8916 72.167C65.8415 71.8753 65.7708 71.6338 65.6797 71.4424C65.5931 71.2464 65.4883 71.0938 65.3652 70.9844C65.2422 70.8704 65.1077 70.7861 64.9619 70.7314C64.7432 70.6494 64.4538 70.6084 64.0938 70.6084C63.7337 70.6084 63.4466 70.6357 63.2324 70.6904C63.0182 70.7451 62.8405 70.8613 62.6992 71.0391C62.4303 71.3854 62.2959 72.0827 62.2959 73.1309C62.2959 74.6211 62.6969 75.4619 63.499 75.6533C63.7451 75.7126 64.0117 75.7422 64.2988 75.7422C64.5859 75.7422 64.832 75.7126 65.0371 75.6533C65.2467 75.5895 65.4199 75.4665 65.5566 75.2842ZM75.2637 70.1641C76.0202 69.4759 76.763 69.1318 77.4922 69.1318C78.5632 69.1318 79.2035 69.6445 79.4131 70.6699C79.4814 71.0072 79.5156 71.3353 79.5156 71.6543C79.5156 71.9688 79.5111 72.2832 79.502 72.5977C79.4974 72.9121 79.4883 73.2493 79.4746 73.6094L79.4336 74.6963C79.4199 75.0609 79.4062 75.3913 79.3926 75.6875L80.3838 75.626C80.4795 75.626 80.5273 75.6807 80.5273 75.79L80.3906 76.9316C80.3906 76.9863 80.377 77.0205 80.3496 77.0342C80.3268 77.0524 80.2881 77.0638 80.2334 77.0684L78.1895 77.0137C78.0846 77.0137 78.0322 76.9635 78.0322 76.8633C78.0459 76.362 78.0527 75.9062 78.0527 75.4961L78.0664 74.416C78.0664 74.1107 78.0664 73.8236 78.0664 73.5547V72.3584C78.0664 71.766 78.0186 71.3809 77.9229 71.2031C77.8317 71.0254 77.7201 70.9046 77.5879 70.8408C77.4557 70.7725 77.2643 70.7383 77.0137 70.7383C76.5762 70.7383 76.0863 70.8841 75.5439 71.1758C75.5758 71.3991 75.5918 71.6452 75.5918 71.9141C75.5918 72.1784 75.5895 72.4701 75.585 72.7891C75.5804 73.1035 75.5736 73.4362 75.5645 73.7871C75.5599 74.138 75.5531 74.4889 75.5439 74.8398C75.5394 75.1908 75.5326 75.5052 75.5234 75.7832L76.4189 75.7627C76.5146 75.7627 76.5625 75.8174 76.5625 75.9268L76.4941 76.8633C76.4896 76.918 76.4759 76.9544 76.4531 76.9727C76.4303 76.9863 76.3916 76.9954 76.3369 77L73.8008 76.9453C73.7051 76.9453 73.6572 76.8952 73.6572 76.7949L73.623 75.8379C73.6322 75.7422 73.6823 75.6943 73.7734 75.6943L74.1973 75.7285C74.2064 75.0996 74.2109 74.5345 74.2109 74.0332V72.3584C74.2109 71.7751 74.1585 71.39 74.0537 71.2031C73.9535 71.0163 73.835 70.8887 73.6982 70.8203C73.5615 70.7474 73.3815 70.7109 73.1582 70.7109C72.6113 70.7109 72.0303 70.9411 71.415 71.4014V75.6533L72.1328 75.6191C72.2103 75.6191 72.249 75.6579 72.249 75.7354L72.3242 76.7949C72.306 76.8952 72.2559 76.9453 72.1738 76.9453L69.3711 76.877C69.2663 76.877 69.2139 76.8223 69.2139 76.7129L69.1455 75.667C69.1637 75.5713 69.2139 75.5234 69.2959 75.5234H69.959V71.0254H68.9131C68.8219 71.0254 68.7764 70.9707 68.7764 70.8613L68.7627 69.5557C68.7809 69.4736 68.8356 69.4258 68.9268 69.4121L70.6494 69.4736C70.7314 69.4827 70.7839 69.5352 70.8066 69.6309L71.0049 70.54C71.8753 69.6468 72.7253 69.2002 73.5547 69.2002C74.3887 69.2002 74.9583 69.5215 75.2637 70.1641ZM86.8369 76.959C86.2536 77.1048 85.513 77.1777 84.6152 77.1777C83.6992 77.1777 83.0339 76.8952 82.6191 76.3301C82.1862 75.7422 81.9697 74.8102 81.9697 73.5342C81.9697 72.1943 82.1543 71.194 82.5234 70.5332C82.9427 69.804 83.6126 69.3597 84.5332 69.2002C84.8522 69.1455 85.2077 69.1182 85.5996 69.1182C86.4427 69.1182 87.0557 69.3255 87.4385 69.7402C87.8213 70.1549 88.0127 70.7884 88.0127 71.6406C88.0127 72.1966 87.9147 72.625 87.7188 72.9258C87.6549 73.0215 87.5684 73.1309 87.459 73.2539C87.3496 73.3724 87.1468 73.4795 86.8506 73.5752C86.5589 73.6663 86.224 73.737 85.8457 73.7871C85.2578 73.86 84.4489 73.8965 83.4189 73.8965C83.4782 74.6667 83.6673 75.1908 83.9863 75.4688C84.2279 75.6875 84.6471 75.7969 85.2441 75.7969C85.8047 75.7969 86.363 75.749 86.9189 75.6533L86.9395 75.2979C86.944 75.2432 86.9554 75.2067 86.9736 75.1885C86.9964 75.1702 87.0352 75.1543 87.0898 75.1406L88.0742 74.9219C88.1745 74.9219 88.2314 74.9652 88.2451 75.0518C88.2588 75.1292 88.2725 75.2819 88.2861 75.5098C88.2998 75.7331 88.3135 75.9268 88.3271 76.0908C88.3408 76.2549 88.3522 76.4121 88.3613 76.5625L88.3887 76.9453C88.3932 77.0592 88.3955 77.1549 88.3955 77.2324C88.3955 77.3691 88.2952 77.4489 88.0947 77.4717L86.96 77.6084C86.8597 77.6084 86.8096 77.5583 86.8096 77.458L86.8369 76.959ZM86.2012 72.4814C86.3197 72.3766 86.3903 72.2559 86.4131 72.1191C86.4404 71.9779 86.4541 71.8138 86.4541 71.627C86.4541 71.4355 86.4359 71.2669 86.3994 71.1211C86.3675 70.9753 86.3105 70.8499 86.2285 70.7451C86.0508 70.5264 85.7614 70.417 85.3604 70.417C84.5856 70.417 84.0684 70.613 83.8086 71.0049C83.5625 71.3695 83.4258 71.9984 83.3984 72.8916C84.9889 72.8688 85.9232 72.7321 86.2012 72.4814Z" fill="white"/>
<defs>
<clipPath id="clip0_81_2022">
<rect width="71" height="62" fill="white" transform="translate(9.5)"/>
</clipPath>
</defs>
</svg>
