<svg width="35" height="49" viewBox="0 0 35 49" fill="none" xmlns="http://www.w3.org/2000/svg">
<path d="M14.4768 0.988925C10.6958 1.6463 7.68762 3.22401 5.04737 5.91927C1.97475 9.04651 0.318843 12.925 0.0796564 17.5173C-0.104333 20.9826 0.999604 25.0396 3.52026 30.139C5.68213 34.5059 8.44198 38.8258 12.1862 43.7186C14.1548 46.2917 15.9027 48.3953 16.3075 48.6677C16.7399 48.9682 17.5495 48.9682 17.9818 48.6677C18.6074 48.2451 22.462 43.3805 24.6422 40.2908C29.564 33.285 32.8666 26.6549 33.8325 21.8091C34.1729 20.1093 34.2833 18.8602 34.2097 17.5173C33.9705 12.925 32.3146 9.04651 29.242 5.91927C26.5557 3.16767 23.4187 1.56178 19.5733 0.951362C18.2854 0.744757 15.7556 0.763538 14.4768 0.988925ZM19.4905 9.85415C21.3304 10.4176 22.8115 11.4694 23.9523 13.0283C25.8842 15.6579 26.197 19.0199 24.7802 21.9875C23.9339 23.7624 22.5908 25.1429 20.8705 26.0163C19.7481 26.5891 18.819 26.8239 17.4667 26.8803C16.5927 26.9178 16.1787 26.8897 15.4888 26.7394C10.5947 25.7064 7.56803 20.6258 8.96635 15.7893C9.86789 12.6809 12.2874 10.4176 15.498 9.67572C16.4639 9.45033 18.4602 9.54424 19.4905 9.85415Z" fill="#FF9505"/>
</svg>
