<svg width="44" height="44" viewBox="0 0 44 44" fill="none" xmlns="http://www.w3.org/2000/svg">
<path fill-rule="evenodd" clip-rule="evenodd" d="M22 0C9.85 0 0 9.85 0 22C0 34.15 9.85 44 22 44C34.15 44 44 34.15 44 22C44 9.85 34.15 0 22 0ZM15.414 17.586C15.0368 17.2217 14.5316 17.0201 14.0072 17.0247C13.4828 17.0292 12.9812 17.2395 12.6104 17.6104C12.2395 17.9812 12.0292 18.4828 12.0247 19.0072C12.0201 19.5316 12.2217 20.0368 12.586 20.414L20.586 28.414C20.9611 28.7889 21.4697 28.9996 22 28.9996C22.5303 28.9996 23.0389 28.7889 23.414 28.414L31.414 20.414C31.7783 20.0368 31.9799 19.5316 31.9753 19.0072C31.9708 18.4828 31.7605 17.9812 31.3896 17.6104C31.0188 17.2395 30.5172 17.0292 29.9928 17.0247C29.4684 17.0201 28.9632 17.2217 28.586 17.586L22 24.172L15.414 17.586Z" fill="#FFFBFB" fill-opacity="0.65"/>
</svg>
